<svg width="30" height="21" viewBox="0 0 30 21" fill="none" xmlns="http://www.w3.org/2000/svg">
<path d="M28.4167 8H1.58333C0.708883 8 0 8.70888 0 9.58333V9.75C0 10.6245 0.708883 11.3333 1.58333 11.3333H28.4167C29.2911 11.3333 30 10.6245 30 9.75V9.58333C30 8.70888 29.2911 8 28.4167 8Z" fill="#F4F4F4"/>
<path d="M28.4167 17H1.58333C0.708883 17 0 17.7089 0 18.5833V18.75C0 19.6244 0.708883 20.3333 1.58333 20.3333H28.4167C29.2911 20.3333 30 19.6244 30 18.75V18.5833C30 17.7089 29.2911 17 28.4167 17Z" fill="#F4F4F4"/>
<path d="M28.4167 0H1.58333C0.708883 0 0 0.708882 0 1.58333V1.75C0 2.62445 0.708883 3.33333 1.58333 3.33333H28.4167C29.2911 3.33333 30 2.62445 30 1.75V1.58333C30 0.708882 29.2911 0 28.4167 0Z" fill="#F4F4F4"/>
</svg>
